<svg id="Layer_1" data-name="Layer 1" xmlns="http://www.w3.org/2000/svg" viewBox="0 0 157.41 45.8"><defs><style>.cls-1{fill:#4b94f2;}</style></defs><path class="cls-1" d="M.51,25.11h4.9c.09,2.83,2.73,5.56,6.86,5.56,3.94,0,6.24-2.49,6.24-5.23,0-2.93-2.64-4.32-5.33-5L9,19.35C1.9,17.57.75,13.39.75,10.66c0-5.81,5.14-9.7,11-9.7s10.61,3.75,10.61,9.79h-4.9c0-3.12-2.44-5.28-5.85-5.28-3.12,0-5.91,2.07-5.91,5.09,0,1.06.34,3.22,4.52,4.32L14.38,16c5.57,1.49,9.08,4.32,9.08,9.17,0,5.52-4.52,10-11.19,10C5.21,35.19.51,30.43.51,25.11Z"/><path class="cls-1" d="M27,4a3.22,3.22,0,0,1,6.43,0A3.22,3.22,0,0,1,27,4Zm.86,30.58V12.19h4.71V34.61Z"/><path class="cls-1" d="M71.27,21.79V34.61H66.51V22c0-3.64-1.92-5.9-4.94-5.9-3.7-.05-5.62,2.59-5.62,7.3V34.61H51.2V22c0-3.64-1.92-5.9-4.7-5.9S40.59,18,40.59,22.56V34.61h-4.7V12.19h4.7v3.7c.91-2.64,3.94-4.27,7-4.27a7.82,7.82,0,0,1,7.34,4.7,8.27,8.27,0,0,1,7.68-4.7C68.24,11.62,71.27,15.41,71.27,21.79Z"/><path class="cls-1" d="M98.26,23.43c0,7.15-5,11.76-11.14,11.76-3.17,0-6.29-1.35-7.78-3.89V45.51h-4.7V12.19h4.7v3.36c1.49-2.54,4.75-3.93,7.78-3.93C93.17,11.62,98.26,16.32,98.26,23.43Zm-4.76,0a7.06,7.06,0,1,0-14.11,0,7.22,7.22,0,0,0,7.15,7.3A7,7,0,0,0,93.5,23.47Z"/><path class="cls-1" d="M108.2,34.61c-6.1,0-8.31-4-8.31-9.74V0h4.71V24.77c0,2.59.52,5.43,4,5.43h1.54v4.41Z"/><path class="cls-1" d="M111.07,4a3.23,3.23,0,0,1,6.44,0,3.23,3.23,0,0,1-6.44,0Zm.87,30.58V12.19h4.7V34.61Z"/><path class="cls-1" d="M133.85,4.42c-3.89,0-4.95,2.3-4.9,5.13v2.64h5.14v3.94H129V34.61h-4.7V16.13h-4.33V12.19h4.33V10.08C124.25,4,126.88,0,133,0h2.5V4.42Z"/><path class="cls-1" d="M152.37,12.19h5l-11,26.45c-2.26,5.09-4.37,7.16-9.12,7.16a10,10,0,0,1-2.74-.34V41.24a10.9,10.9,0,0,0,2.55.24c2.73,0,3.69-1.68,5-4.66l1.25-3.07-8.88-21.56h5l6.38,15.6Z"/></svg>